<mxfile host="app.diagrams.net" modified="2023-06-13T01:36:16.502Z" agent="Mozilla/5.0 (Macintosh; Intel Mac OS X 10_15_7) AppleWebKit/537.36 (KHTML, like Gecko) Chrome/113.0.0.0 Safari/537.36" version="21.3.8" etag="TnSQVG9Z-_sgjnHJKL5z" type="github">
  <diagram name="Page-1" id="bDK5AP8nF1w2_RiZlkrD">
    <mxGraphModel>
      <root>
        <mxCell id="0" />
        <mxCell id="1" parent="0" />
      </root>
    </mxGraphModel>
  </diagram>
</mxfile>
